<svg xmlns="http://www.w3.org/2000/svg" viewBox="0 0 350 80">
  <defs>
    <linearGradient id="grad1" x1="0%" y1="0%" x2="100%" y2="100%">
      <stop offset="0%" style="stop-color:#1D3A5F;stop-opacity:1" />
      <stop offset="100%" style="stop-color:#3b82f6;stop-opacity:1" />
    </linearGradient>
  </defs>
  
  <!-- Gear Icon -->
  <g transform="translate(40, 40) scale(3)">
    <path fill="#F27D0C" d="M12,1 L15,1 L16,4 C17,4 18,5 19,6 L22,5 L23,8 L20,10 C20,11 20,12 20,13 L23,15 L22,18 L19,17 C18,18 17,19 16,19 L15,22 L12,22 L11,19 C10,19 9,18 8,17 L5,18 L4,15 L7,13 C7,12 7,11 7,10 L4,8 L5,5 L8,6 C9,5 10,4 11,4 L12,1 Z M12,8 C14.2,8 16,9.8 16,12 C16,14.2 14.2,16 12,16 C9.8,16 8,14.2 8,12 C8,9.8 9.8,8 12,8 Z" transform="translate(-12, -12)"/>
  </g>

  <!-- Text -->
  <text x="85" y="45" font-family="Oswald, sans-serif" font-weight="bold" font-size="42" fill="#1D3A5F">JAI AMBE</text>
  <text x="88" y="70" font-family="Inter, sans-serif" font-weight="500" font-size="14" fill="#666" letter-spacing="4">ENGINEERING</text>
</svg>
